<svg width="16" height="16" viewBox="0 0 16 16" fill="none" xmlns="http://www.w3.org/2000/svg">
<rect width="16" height="16" fill="black"/>
<path fill-rule="evenodd" clip-rule="evenodd" d="M7.43432 6.22456C7.74674 6.53697 8.25327 6.53697 8.56569 6.22456L10.6343 4.15593L12.2343 2.55593C12.3366 2.45366 12.4536 2.38685 12.5751 2.35126C12.753 2.29915 12.9407 2.31398 13.1061 2.38251C13.3846 2.49783 13.6 2.76525 13.6 3.12161V4.85887V13.1902C13.6 13.6321 13.2418 13.9902 12.8 13.9902H11.2C10.7582 13.9902 10.4 13.6321 10.4 13.1902V8.39024L8.56569 10.2246C8.25327 10.537 7.74674 10.537 7.43432 10.2246L5.6 8.39024V13.1902C5.6 13.6321 5.24183 13.9902 4.8 13.9902H3.2C2.75817 13.9902 2.4 13.6321 2.4 13.1902V4.85887V3.12161C2.4 2.9226 2.46718 2.75134 2.575 2.6188C2.80506 2.33601 3.22012 2.22957 3.56231 2.4063C3.6341 2.44338 3.70269 2.49293 3.76569 2.55593L5.36569 4.15593L7.43432 6.22456Z" fill="white"/>
<path fill-rule="evenodd" clip-rule="evenodd" d="M12 12.3902H10.4C10.4 13.2739 9.68366 13.9902 8.8 13.9902H12V12.3902Z" fill="white"/>
<path fill-rule="evenodd" clip-rule="evenodd" d="M4 12.3902H5.6C5.6 13.2739 6.31635 13.9902 7.2 13.9902H4V12.3902Z" fill="white"/>
</svg>
