<svg width="65" height="9" viewBox="0 0 65 9" fill="none" xmlns="http://www.w3.org/2000/svg">
<rect x="29" y="3" width="2" height="6" rx="0.5" fill="black"/>
<rect x="29" width="2" height="2" rx="1" fill="#DFD576"/>
<rect x="29.75" y="0.5" width="0.5" height="1" rx="0.25" fill="black"/>
<rect x="23" y="2" width="2" height="7" rx="0.5" fill="black"/>
<path d="M24.1464 4.80498C23.9512 5.03279 23.9512 5.40213 24.1464 5.62994C24.1987 5.69088 24.2596 5.73552 24.3246 5.76386L24.2978 5.79513C24.1025 6.02294 24.1025 6.39228 24.2978 6.62009C24.493 6.84789 24.8096 6.84789 25.0049 6.62009L28.1114 2.99581C28.1593 2.93988 28.1955 2.87542 28.2199 2.80662C28.244 2.73886 28.2574 2.66465 28.2578 2.58683L28.2578 2.58333L28.2578 2.57983C28.2574 2.50201 28.244 2.42781 28.2199 2.36004C28.1955 2.29124 28.1593 2.22678 28.1114 2.17085C28.0634 2.11493 28.0082 2.07273 27.9492 2.04426C27.8903 2.01574 27.8256 2 27.7578 2H26.7578C26.6907 2 26.6267 2.01543 26.5682 2.04343C26.5085 2.0719 26.4527 2.11438 26.4043 2.17085L24.1464 4.80498Z" fill="black"/>
<path d="M24.1464 6.19502C23.9512 5.96721 23.9512 5.59787 24.1464 5.37006C24.1987 5.30912 24.2596 5.26448 24.3246 5.23614L24.2978 5.20487C24.1025 4.97706 24.1025 4.60772 24.2978 4.37991C24.493 4.15211 24.8096 4.15211 25.0049 4.37991L28.1114 8.00419C28.1593 8.06012 28.1955 8.12458 28.2199 8.19338C28.244 8.26114 28.2574 8.33535 28.2578 8.41317L28.2578 8.41667L28.2578 8.42017C28.2574 8.49799 28.244 8.57219 28.2199 8.63996C28.1955 8.70876 28.1593 8.77322 28.1114 8.82915C28.0634 8.88507 28.0082 8.92727 27.9492 8.95574C27.8903 8.98426 27.8256 9 27.7578 9H26.7578C26.6907 9 26.6267 8.98457 26.5682 8.95657C26.5085 8.9281 26.4527 8.88562 26.4043 8.82915L24.1464 6.19502Z" fill="black"/>
<path fill-rule="evenodd" clip-rule="evenodd" d="M17 3.5C17 3.22386 17.2239 3 17.5 3H18.5C18.7761 3 19 3.22386 19 3.5V6V7.25C19 7.38807 19.1119 7.5 19.25 7.5H19.75C19.8881 7.5 20 7.38807 20 7.25V6V3.5C20 3.22386 20.2239 3 20.5 3H21.5C21.7761 3 22 3.22386 22 3.5V6V8.5C22 8.77614 21.7761 9 21.5 9H20H19H17.5C17.2239 9 17 8.77614 17 8.5V6V3.5Z" fill="black"/>
<rect x="14" y="2" width="2" height="7" rx="0.5" fill="black"/>
<rect x="11" y="7.5" width="5" height="1.5" rx="0.5" fill="black"/>
<rect x="11" y="2" width="2" height="4" rx="0.5" fill="black"/>
<path fill-rule="evenodd" clip-rule="evenodd" d="M13 4.5H11.5C11.2239 4.5 11 4.72386 11 5V6C11 6.27614 11.2239 6.5 11.5 6.5H15.5C15.7761 6.5 16 6.27614 16 6V5C16 4.72386 15.7761 4.5 15.5 4.5H14V4.75C14 4.88807 13.8881 5 13.75 5H13.25C13.1119 5 13 4.88807 13 4.75V4.5Z" fill="black"/>
<rect x="8" y="3" width="2" height="6" rx="0.5" fill="black"/>
<rect x="8" width="2" height="2" rx="1" fill="#97B8E9"/>
<rect x="8.75" y="0.5" width="0.5" height="1" rx="0.25" fill="black"/>
<path fill-rule="evenodd" clip-rule="evenodd" d="M1.85383 2.85382C1.85374 2.85373 1.85364 2.85364 1.85355 2.85355L0.853553 1.85355C0.853553 1.85355 0.853553 1.85355 0.853553 1.85355C0.785683 1.78568 0.707432 1.74279 0.626425 1.72173C0.425469 1.66947 0.207551 1.75151 0.0890732 1.91964C0.0336607 1.99828 0 2.09574 0 2.2071V2.79289V8.5C0 8.77614 0.223858 9 0.5 9H1.5C1.77614 9 2 8.77614 2 8.5V5L3.14645 6.14644C3.34171 6.34171 3.65829 6.34171 3.85355 6.14644L5 5V8.5C5 8.77614 5.22386 9 5.5 9H6.5C6.77614 9 7 8.77614 7 8.5V2.79289V2.2071C7 1.95654 6.82959 1.77633 6.62443 1.72267C6.54344 1.70148 6.45705 1.70002 6.37357 1.72173C6.29257 1.74279 6.21432 1.78568 6.14645 1.85355L5.14645 2.85355C5.14639 2.85361 5.14633 2.85367 5.14626 2.85373L3.85355 4.14644C3.65829 4.34171 3.34171 4.34171 3.14645 4.14644L1.85383 2.85382Z" fill="black"/>
<path fill-rule="evenodd" clip-rule="evenodd" d="M6 8H5C5 8.55228 4.55228 9 4 9H6V8Z" fill="black"/>
<path fill-rule="evenodd" clip-rule="evenodd" d="M1 8H2C2 8.55228 2.44772 9 3 9H1V8Z" fill="black"/>
<rect x="34" y="1" width="2" height="8" rx="0.5" fill="black"/>
<rect x="41" y="3" width="2" height="6" rx="0.5" fill="black"/>
<rect x="34" y="1" width="6" height="2" rx="0.5" fill="black"/>
<rect x="34" y="7" width="6" height="2" rx="0.5" fill="black"/>
<rect x="38" y="5" width="2" height="4" rx="0.5" fill="black"/>
<rect x="44" y="3" width="2" height="6" rx="0.5" fill="black"/>
<path fill-rule="evenodd" clip-rule="evenodd" d="M41 3C41 2.44772 41.4477 2 42 2H45C45.5523 2 46 2.44772 46 3V6.5C46 6.77614 45.7761 7 45.5 7H44.25C44.1119 7 44 6.88807 44 6.75V6.75C44 6.61193 43.8881 6.5 43.75 6.5H43.25C43.1119 6.5 43 6.61193 43 6.75V6.75C43 6.88807 42.8881 7 42.75 7H41.5C41.2239 7 41 6.77614 41 6.5V3ZM43 4.25C43 4.11193 43.1119 4 43.25 4H43.75C43.8881 4 44 4.11193 44 4.25V4.75C44 4.88807 43.8881 5 43.75 5H43.25C43.1119 5 43 4.88807 43 4.75V4.25Z" fill="black"/>
<path d="M47 2.33072C47 1.86904 47.5723 1.65402 47.8763 2.00147L48.8763 3.14433C48.956 3.23548 49 3.35247 49 3.47358V8.5C49 8.77614 48.7761 9 48.5 9H47.5C47.2239 9 47 8.77614 47 8.5V2.33072Z" fill="black"/>
<path d="M51 3.47358C51 3.35247 51.044 3.23548 51.1237 3.14433L52.1237 2.00147C52.4277 1.65402 53 1.86904 53 2.33072V8.5C53 8.77614 52.7761 9 52.5 9H51.5C51.2239 9 51 8.77614 51 8.5V3.47358Z" fill="black"/>
<path fill-rule="evenodd" clip-rule="evenodd" d="M50.3536 3.94034C50.1583 4.1356 49.8417 4.1356 49.6464 3.94034L47.8536 2.14745C47.5386 1.83247 47 2.05555 47 2.501V3.58679C47 3.7194 47.0527 3.84657 47.1464 3.94034L49.6464 6.44034C49.8417 6.6356 50.1583 6.6356 50.3536 6.44034L52.8536 3.94034C52.9473 3.84657 53 3.7194 53 3.58679V2.501C53 2.05555 52.4614 1.83247 52.1464 2.14745L50.3536 3.94034Z" fill="black"/>
<rect x="60" y="2" width="2" height="4" rx="0.5" fill="black"/>
<rect x="63" y="5" width="2" height="4" rx="0.5" fill="black"/>
<rect x="60" y="4" width="5" height="2" rx="0.5" fill="black"/>
<rect x="60" y="7" width="5" height="2" rx="0.5" fill="black"/>
<rect x="54" y="5" width="4" height="1" rx="0.5" fill="black"/>
<path fill-rule="evenodd" clip-rule="evenodd" d="M54.5 2C54.2239 2 54 2.22386 54 2.5V8.5C54 8.77614 54.2239 9 54.5 9H56.5C56.7761 9 57 8.77614 57 8.5V7.5C57 7.22386 56.7761 7 56.5 7H56.25C56.1119 7 56 6.88807 56 6.75V6.25C56 6.11193 56.1119 6 56.25 6H56.5C56.7761 6 57 5.77614 57 5.5V5.5C57 5.22386 56.7761 5 56.5 5H56.25C56.1119 5 56 4.88807 56 4.75V4.25C56 4.11193 56.1119 4 56.25 4H56.5C56.7761 4 57 3.77614 57 3.5V2.5C57 2.22386 56.7761 2 56.5 2H54.5Z" fill="black"/>
<rect x="54" y="7" width="5" height="2" rx="0.5" fill="black"/>
<rect x="54" y="2" width="5" height="2" rx="0.5" fill="black"/>
<rect x="60" y="1" width="5" height="2" rx="0.5" fill="black"/>
</svg>
