<svg width="260" height="36" viewBox="0 0 260 36" fill="none" xmlns="http://www.w3.org/2000/svg">
<rect x="116" y="12" width="8" height="24" rx="2" fill="white"/>
<rect x="116" width="8" height="8" rx="4" fill="#DFD576"/>
<rect x="119" y="2" width="2" height="4" rx="1" fill="black"/>
<rect x="92" y="8" width="8" height="28" rx="2" fill="white"/>
<path d="M96.5858 19.2199C95.8047 20.1312 95.8047 21.6085 96.5858 22.5198C96.7947 22.7635 97.0384 22.9421 97.2982 23.0554L97.191 23.1805C96.41 24.0917 96.41 25.5691 97.191 26.4803C97.9721 27.3916 99.2384 27.3916 100.019 26.4803L112.446 11.9832C112.637 11.7595 112.782 11.5017 112.88 11.2265C112.976 10.9554 113.03 10.6586 113.031 10.3473L113.031 10.3333L113.031 10.3193C113.03 10.0081 112.976 9.71123 112.88 9.44017C112.782 9.16497 112.637 8.90713 112.446 8.68342C112.254 8.4597 112.033 8.29091 111.797 8.17705C111.561 8.06296 111.302 8 111.031 8H107.031C106.763 8 106.507 8.06174 106.273 8.17371C106.034 8.2876 105.811 8.45751 105.617 8.68342L96.5858 19.2199Z" fill="white"/>
<path d="M96.5858 24.7801C95.8047 23.8688 95.8047 22.3915 96.5858 21.4802C96.7947 21.2365 97.0384 21.0579 97.2982 20.9446L97.191 20.8195C96.41 19.9083 96.41 18.4309 97.191 17.5197C97.9721 16.6084 99.2384 16.6084 100.019 17.5197L112.446 32.0168C112.637 32.2405 112.782 32.4983 112.88 32.7735C112.976 33.0446 113.03 33.3414 113.031 33.6527L113.031 33.6667L113.031 33.6807C113.03 33.9919 112.976 34.2888 112.88 34.5598C112.782 34.835 112.637 35.0929 112.446 35.3166C112.254 35.5403 112.033 35.7091 111.797 35.823C111.561 35.937 111.302 36 111.031 36H107.031C106.763 36 106.507 35.9383 106.273 35.8263C106.034 35.7124 105.811 35.5425 105.617 35.3166L96.5858 24.7801Z" fill="white"/>
<path fill-rule="evenodd" clip-rule="evenodd" d="M80 14C80 12.8954 80.8955 12 82 12H86C87.1046 12 88 12.8954 88 14V24C88 24 88.0001 24.0001 88.0001 24.0001V24.0001C88.0001 24.0001 88.0001 24.0001 88.0001 24.0001V34.0001C88.0001 35.1046 87.1047 36.0001 86.0001 36.0001H68.0002C68.0002 36.0001 68.0001 36 68.0001 36V36C68.0001 36 68.0001 36 68.0001 36H68.0001C68 36 68 36 68 36V14C68 12.8955 68.8954 12 70 12H74C75.1046 12 76 12.8955 76 14L76 24.0001V29C76 29.5523 76.4477 30 77 30H79C79.5523 30 80 29.5523 80 29V24.0001C80 24.0001 80 24.0001 80 24.0001V24.0001C80 24.0001 80 24 80 24V14Z" fill="white"/>
<rect x="56" y="8" width="8" height="28" rx="2" fill="white"/>
<rect x="44" y="30" width="20" height="6" rx="2" fill="white"/>
<rect x="44" y="8" width="8" height="16" rx="2" fill="white"/>
<path fill-rule="evenodd" clip-rule="evenodd" d="M52 18H46C44.8954 18 44 18.8954 44 20V24C44 25.1046 44.8954 26 46 26H62C63.1046 26 64 25.1046 64 24V20C64 18.8954 63.1046 18 62 18H56V19C56 19.5523 55.5522 20 55 20H53C52.4477 20 52 19.5523 52 19V18Z" fill="white"/>
<rect x="32" y="12" width="8" height="24" rx="2" fill="white"/>
<rect x="32" width="8" height="8" rx="4" fill="#97B8E9"/>
<rect x="35" y="2" width="2" height="4" rx="1" fill="black"/>
<path fill-rule="evenodd" clip-rule="evenodd" d="M7.42161 11.4217C7.41915 11.4192 7.41669 11.4167 7.41421 11.4143L3.41421 7.41426C2.15428 6.15433 0 7.04666 0 8.82847V8.82851V11.1717V34C0 35.1046 0.895431 36 2 36H6C7.10457 36 8 35.1046 8 34V20.0001L12.5858 24.5859C13.3668 25.3669 14.6332 25.3669 15.4142 24.5859L20 20.0001V34C20 35.1046 20.8954 36 22 36H26C27.1046 36 28 35.1046 28 34V11.1717V8.82851C28 8.8285 28 8.82849 28 8.82847C28 8.60575 27.9663 8.39692 27.905 8.20446C27.4754 6.85721 25.6882 6.31182 24.5858 7.41426L24.5858 7.4143L20.5858 11.4143C20.5833 11.4167 20.5809 11.4192 20.5784 11.4217L15.4142 16.5859C14.6332 17.3669 13.3668 17.3669 12.5858 16.5859L7.42161 11.4217Z" fill="white"/>
<path fill-rule="evenodd" clip-rule="evenodd" d="M24 32H20C20 34.2091 18.2091 36 16 36H24V32Z" fill="white"/>
<path fill-rule="evenodd" clip-rule="evenodd" d="M4 32H8C8 34.2091 9.79086 36 12 36H4V32Z" fill="white"/>
<rect x="136" y="4" width="8" height="32" rx="2" fill="white"/>
<rect x="164" y="12" width="8" height="24" rx="2" fill="white"/>
<rect x="136" y="4" width="24" height="8" rx="2" fill="white"/>
<rect x="136" y="28" width="24" height="8" rx="2" fill="white"/>
<rect x="152" y="20" width="8" height="16" rx="2" fill="white"/>
<rect x="176" y="12" width="8" height="24" rx="2" fill="white"/>
<path fill-rule="evenodd" clip-rule="evenodd" d="M164 12C164 9.79086 165.791 8 168 8H180C182.209 8 184 9.79086 184 12V26C184 27.1046 183.105 28 182 28H177C176.448 28 176 27.5523 176 27V27C176 26.4477 175.552 26 175 26H173C172.448 26 172 26.4477 172 27V27C172 27.5523 171.552 28 171 28H166C164.895 28 164 27.1046 164 26V12ZM172 17C172 16.4477 172.448 16 173 16H175C175.552 16 176 16.4477 176 17V19C176 19.5522 175.552 20 175 20H173C172.448 20 172 19.5522 172 19V17Z" fill="white"/>
<path d="M188 11.074C188 9.2588 190.224 8.38236 191.462 9.7094L195.462 13.9951C195.808 14.3655 196 14.8532 196 15.3598V34C196 35.1046 195.105 36 194 36H190C188.895 36 188 35.1046 188 34V11.074Z" fill="white"/>
<path d="M204 14.6267C204 14.1313 204.184 13.6537 204.516 13.2861L208.516 8.85751C209.743 7.49855 212 8.36686 212 10.1981V34C212 35.1046 211.105 36 210 36H206C204.895 36 204 35.1046 204 34V14.6267Z" fill="white"/>
<path fill-rule="evenodd" clip-rule="evenodd" d="M201.414 15.7614C200.633 16.5424 199.367 16.5424 198.586 15.7614L191.414 8.5898C190.154 7.32987 188 8.2222 188 10.004V14.3472C188 14.8776 188.211 15.3863 188.586 15.7614L198.586 25.7614C199.367 26.5424 200.633 26.5424 201.414 25.7614L211.414 15.7614C211.789 15.3863 212 14.8776 212 14.3472V10.004C212 8.2222 209.846 7.32987 208.586 8.5898L201.414 15.7614Z" fill="white"/>
<rect x="240" y="8" width="8" height="16" rx="2" fill="white"/>
<rect x="252" y="20" width="8" height="16" rx="2" fill="white"/>
<rect x="240" y="16" width="20" height="8" rx="2" fill="white"/>
<rect x="240" y="28" width="20" height="8" rx="2" fill="white"/>
<rect x="216" y="20" width="16" height="4" rx="2" fill="white"/>
<path fill-rule="evenodd" clip-rule="evenodd" d="M218 8C216.895 8 216 8.89543 216 10V34C216 35.1046 216.895 36 218 36H226C227.105 36 228 35.1046 228 34V30C228 28.8954 227.105 28 226 28H225C224.448 28 224 27.5523 224 27V25C224 24.4477 224.448 24 225 24H226C227.105 24 228 23.1045 228 22V22C228 20.8954 227.105 20 226 20H225C224.448 20 224 19.5522 224 19V17C224 16.4477 224.448 16 225 16H226C227.105 16 228 15.1045 228 14V10C228 8.89543 227.105 8 226 8H218Z" fill="white"/>
<rect x="216" y="28" width="20" height="8" rx="2" fill="white"/>
<rect x="216" y="8" width="20" height="8" rx="2" fill="white"/>
<rect x="240" y="4" width="20" height="8" rx="2" fill="white"/>
</svg>
